{"title":"Fast 5 2011 TS V2 x264 Feel-Free","uid":6359506,"size":986462631,"categoryP":"video","categoryS":"movies","magnet":"?xt=urn:btih:29104f143a4c85e58bd41d293c10c446a3ae3257&amp;dn=Fast+5+2011+TS+V2+x264+Feel-Free&amp;tr=udp%3A%2F%2Ftracker.openbittorrent.com%3A80&amp;tr=udp%3A%2F%2Fopen.demonii.com%3A1337&amp;tr=udp%3A%2F%2Ftracker.coppersurfer.tk%3A6969&amp;tr=udp%3A%2F%2Fexodus.desync.com%3A6969","seeders":0,"leechers":1,"uploader":"qwersd","files":-1,"time":1304280073,"description":"Genre:Action | Crime | Drama\nLanguage:English\nIMDb:http://www.imdb.com/title/tt1596343/\nSource:IMAGINE Thanks\nSubtitles:Romana\n\nFormat : MPEG-4\nFormat profile : Base Media\nCodec ID : isom\nFile size : 938 MiB\nDuration : 1h 56mn\nOverall bit rate : 1 123 Kbps\n\nVideo\nFormat profile : &lt;a class=&quot;__cf_email__&quot; href=&quot;/cdn-cgi/l/email-protection&quot; data-cfemail=&quot;6028090708202c544e51&quot;&gt;[email&amp;#160;protected]&lt;/a&gt;&lt;script cf-hash='f9e31' type=&quot;text/javascript&quot;&gt;\n/* &lt;![CDATA[ */!function(){try{var t=&quot;currentScript&quot;in document?document.currentScript:function(){for(var t=document.getElementsByTagName(&quot;script&quot;),e=t.length;e--;)if(t[e].getAttribute(&quot;cf-hash&quot;))return t[e]}();if(t&amp;&amp;t.previousSibling){var e,r,n,i,c=t.previousSibling,a=c.getAttribute(&quot;data-cfemail&quot;);if(a){for(e=&quot;&quot;,r=parseInt(a.substr(0,2),16),n=2;a.length-n;n+=2)i=parseInt(a.substr(n,2),16)^r,e+=String.fromCharCode(i);e=document.createTextNode(e),c.parentNode.replaceChild(e,c)}}}catch(u){}}();/* ]]&gt; */&lt;/script&gt;\nFormat settings, CABAC : Yes\nFormat settings, ReFrames : 3 frames\nCodec ID : avc1\nCodec ID/Info : Advanced Video Coding\nDuration : 1h 56mn\nBit rate mode : Variable\nBit rate : 897 Kbps\nMaximum bit rate : 3 897 Kbps\nWidth : 720 pixels\nHeight : 304 pixels\nDisplay aspect ratio : 2.35:1\nFrame rate mode : Constant\nFrame rate : 23.976 fps\nColor space : YUV\nChroma subsampling : 4:2:0\nBit depth : 8 bits\nScan type : Progressive\nBits/(Pixel*Frame) : 0.171\nStream size : 748 MiB (80%)\nWriting library : x264\n\n\nAudio\nID : 2\nFormat : AAC\nFormat/Info : Advanced Audio Codec\nFormat version : Version 4\nFormat profile : LC\nFormat settings, SBR : No\nCodec ID : 40\nDuration : 1h 56mn\nBit rate mode : Variable\nBit rate : 224 Kbps\nMaximum bit rate : 283 Kbps\nChannel(s) : 2 channels\nChannel positions : Front: L R\nSampling rate : 44.1 KHz\nStream size : 187 MiB (20%)\n\n\nPlot:\nDominic and his crew find themselves on the wrong side of the law once again as they try to switch lanes between a ruthless drug lord and a relentless federal agent.\n\nScreens:\n &lt;a href=&quot;\nhttp://www.pix2links.com/images/47050068996882014105.png&quot; rel=&quot;nofollow&quot; target=&quot;_NEW&quot;&gt;\nhttp://www.pix2links.com/images/47050068996882014105.png&lt;/a&gt; &lt;a href=&quot;\nhttp://www.pix2links.com/images/44809441732729910563.png&quot; rel=&quot;nofollow&quot; target=&quot;_NEW&quot;&gt;\nhttp://www.pix2links.com/images/44809441732729910563.png&lt;/a&gt; &lt;a href=&quot;\nhttp://www.pix2links.com/images/31439830476581974764.png&quot; rel=&quot;nofollow&quot; target=&quot;_NEW&quot;&gt;\nhttp://www.pix2links.com/images/31439830476581974764.png&lt;/a&gt; &lt;a href=&quot;\nhttp://www.pix2links.com/images/32179263845820385216.png&quot; rel=&quot;nofollow&quot; target=&quot;_NEW&quot;&gt;\nhttp://www.pix2links.com/images/32179263845820385216.png&lt;/a&gt; &lt;a href=&quot;\nhttp://www.pix2links.com/images/57129918242073351187.png&quot; rel=&quot;nofollow&quot; target=&quot;_NEW&quot;&gt;\nhttp://www.pix2links.com/images/57129918242073351187.png&lt;/a&gt; &lt;a href=&quot;\nhttp://www.pix2links.com/images/64674688087628679479.png&quot; rel=&quot;nofollow&quot; target=&quot;_NEW&quot;&gt;\nhttp://www.pix2links.com/images/64674688087628679479.png&lt;/a&gt; &lt;a href=&quot;\nhttp://www.pix2links.com/images/79874760755972853593.png&quot; rel=&quot;nofollow&quot; target=&quot;_NEW&quot;&gt;\nhttp://www.pix2links.com/images/79874760755972853593.png&lt;/a&gt; &lt;a href=&quot;\nhttp://www.pix2links.com/images/76493184708773906018.png&quot; rel=&quot;nofollow&quot; target=&quot;_NEW&quot;&gt;\nhttp://www.pix2links.com/images/76493184708773906018.png&lt;/a&gt;\n\nGreets:\n\nINK,CRYS,IMAGINE,LKRG,FXG,3Li,FLAWL3SS,TA,iLLUSiON,ViSiON,DTRG SAFCuk009,LU,TheFalcon007,MYSTiC,PrisM,Noir,WBZ,LAP,Rx,Kingdom,SAFCuk009+Fabreezy,HDLiTE,TWiZTED,ExtraTorrentRG.ELEKTRI4KA,MAGNAT,CM8\nAnd to all the other p2p grps past and present.","torrent":{"xt":"urn:btih:29104f143a4c85e58bd41d293c10c446a3ae3257","amp;dn":"Fast+5+2011+TS+V2+x264+Feel-Free","amp;tr":["udp%3A%2F%2Ftracker.openbittorrent.com%3A80","udp%3A%2F%2Fopen.demonii.com%3A1337","udp%3A%2F%2Ftracker.coppersurfer.tk%3A6969","udp%3A%2F%2Fexodus.desync.com%3A6969"],"infoHash":"29104f143a4c85e58bd41d293c10c446a3ae3257","infoHashBuffer":{"type":"Buffer","data":[41,16,79,20,58,76,133,229,139,212,29,41,60,16,196,70,163,174,50,87]},"announce":[],"urlList":[]}}